<svg width="1212" height="1044" xmlns="http://www.w3.org/2000/svg" xmlns:xlink="http://www.w3.org/1999/xlink" xml:space="preserve" overflow="hidden"><defs><clipPath id="clip0"><rect x="2968" y="326" width="1212" height="1044"/></clipPath></defs><g clip-path="url(#clip0)" transform="translate(-2968 -326)"><path d="M2980.5 847.976 3236.24 336.5 3911.76 336.5 4167.5 847.976 3911.76 1359.45 3236.24 1359.45Z" stroke="#000000" stroke-width="20.625" stroke-miterlimit="8" fill="#F2F2F2" fill-rule="evenodd"/><rect x="3243" y="346" width="306" height="105" fill="#B4C7E7"/><rect x="3546" y="447" width="196" height="105" fill="#C5E0B4"/><rect x="3736" y="551" width="130" height="104" fill="#404040"/><rect x="3827" y="655" width="125" height="105" fill="#C5E0B4"/><rect x="3244" y="449" width="130" height="105" fill="#C5E0B4"/><rect x="3374" y="552" width="61.0002" height="105" fill="#C5E0B4"/><rect x="3244" y="552" width="63" height="105" fill="#404040"/><rect x="3546" y="552" width="60.9998" height="105" fill="#B4C7E7"/><rect x="3244" y="655" width="63" height="107" fill="#B4C7E7"/><rect x="3415" y="655" width="41" height="107" fill="#404040"/><rect x="3546" y="652" width="42" height="110" fill="#404040"/><rect x="3737" y="655" width="42" height="107" fill="#B4C7E7"/><rect x="3601" y="1246" width="307" height="105" fill="#B4C7E7"/><rect x="3409" y="1144" width="196" height="105" fill="#C5E0B4"/><rect x="3285" y="1041" width="130" height="104" fill="#404040"/><rect x="3199" y="936" width="125" height="105" fill="#C5E0B4"/><rect x="3777" y="1142" width="130" height="106" fill="#C5E0B4"/><rect x="3716" y="1039" width="61.0002" height="105" fill="#C5E0B4"/><rect x="3844" y="1039" width="63" height="105" fill="#404040"/><rect x="3544" y="1039" width="60.9998" height="105" fill="#B4C7E7"/><rect x="3844" y="934" width="63" height="107" fill="#B4C7E7"/><rect x="3694" y="934" width="42" height="107" fill="#404040"/><rect x="3563" y="934" width="42" height="110" fill="#404040"/><rect x="3372" y="934" width="42.0002" height="107" fill="#B4C7E7"/><path d="M3023.25 951.364 2974 845.014 3012.25 759.063 4118.59 757 4166 848.796 4116.35 954 3023.25 951.364Z" fill-rule="evenodd"/><text fill="#FFFFFF" font-family="Arial,Arial_MSFontService,sans-serif" font-weight="400" font-size="128" transform="matrix(1 0 0 1 3235.71 887)">gg<tspan font-weight="700" font-size="128" x="143.229" y="0">oncoplot</tspan></text><path d="M0 0 1091.31 3.18488" stroke="#000000" stroke-width="13.75" stroke-miterlimit="8" fill="none" fill-rule="evenodd" transform="matrix(1 0 0 -1 3025 951.185)"/><path d="M0 0 1091.31 3.18488" stroke="#000000" stroke-width="13.75" stroke-miterlimit="8" fill="none" fill-rule="evenodd" transform="matrix(1 0 0 -1 3025 759.185)"/></g></svg>