<svg width="1212" height="1044" xmlns="http://www.w3.org/2000/svg" xmlns:xlink="http://www.w3.org/1999/xlink" xml:space="preserve" overflow="hidden"><defs><clipPath id="clip0"><rect x="575" y="326" width="1212" height="1044"/></clipPath></defs><g clip-path="url(#clip0)" transform="translate(-575 -326)"><path d="M587.5 847.976 843.237 336.5 1518.76 336.5 1774.5 847.976 1518.76 1359.45 843.237 1359.45Z" stroke="#000000" stroke-width="20.625" stroke-miterlimit="8" fill-rule="evenodd"/><rect x="759" y="749" width="844" height="189"/><text fill="#F2F2F2" font-family="Arial,Arial_MSFontService,sans-serif" font-weight="400" font-size="128" transform="matrix(1 0 0 1 837.732 890)">gg<tspan font-weight="700" font-size="128" x="143.229" y="0">oncoplot</tspan></text><rect x="850" y="346" width="307" height="105" fill="#B4C7E7"/><rect x="1153" y="447" width="196" height="105" fill="#C5E0B4"/><rect x="1343" y="551" width="130" height="104" fill="#404040"/><rect x="1434" y="655" width="125" height="105" fill="#C5E0B4"/><rect x="851" y="449" width="130" height="105" fill="#C5E0B4"/><rect x="981" y="552" width="60.9998" height="105" fill="#C5E0B4"/><rect x="851" y="552" width="62.9999" height="105" fill="#404040"/><rect x="1153" y="552" width="61.0002" height="105" fill="#B4C7E7"/><rect x="851" y="655" width="62.9999" height="107" fill="#B4C7E7"/><rect x="1022" y="655" width="41.9999" height="107" fill="#404040"/><rect x="1153" y="652" width="41.9999" height="110" fill="#404040"/><rect x="1344" y="655" width="41.9999" height="107" fill="#B4C7E7"/><rect x="1209" y="1243" width="306" height="105" fill="#B4C7E7"/><rect x="1016" y="1142" width="196" height="105" fill="#C5E0B4"/><rect x="892" y="1039" width="130" height="104" fill="#404040"/><rect x="806" y="934" width="125" height="105" fill="#C5E0B4"/><rect x="1384" y="1140" width="130" height="105" fill="#C5E0B4"/><rect x="1323" y="1037" width="60.9999" height="105" fill="#C5E0B4"/><rect x="1451" y="1037" width="62.9999" height="105" fill="#404040"/><rect x="1151" y="1037" width="61.0002" height="105" fill="#B4C7E7"/><rect x="1451" y="932" width="62.9999" height="107" fill="#B4C7E7"/><rect x="1301" y="932" width="41.9999" height="107" fill="#404040"/><rect x="1170" y="932" width="41.9999" height="110" fill="#404040"/><rect x="979" y="932" width="41.9999" height="107" fill="#B4C7E7"/><path d="M629.5 759.5 1743.67 759.5" stroke="#000000" stroke-width="20.625" stroke-miterlimit="8" fill="none" fill-rule="evenodd"/><path d="M629.5 936.5 1728.18 936.5" stroke="#000000" stroke-width="20.625" stroke-miterlimit="8" fill="none" fill-rule="evenodd"/></g></svg>